<svg xmlns="http://www.w3.org/2000/svg" viewBox="0 0 1200 630" role="img" aria-labelledby="title desc">
  <title id="title">Rasmus Thunborg</title>
  <desc id="desc">Open graph image for Rasmus Thunborg, Expert Software Engineer.</desc>
  <rect width="1200" height="630" fill="#0A0A0A"/>
  <rect x="72" y="72" width="1056" height="486" rx="28" fill="#111111" stroke="rgba(255,255,255,0.1)" stroke-width="2"/>
  <g transform="translate(108 108)">
    <rect width="104" height="104" rx="18" fill="#0A0A0A" stroke="rgba(255,255,255,0.12)" stroke-width="2"/>
    <path d="M28 72V31h19c10 0 16 6 16 15 0 6-3 11-9 14l11 12H54l-10-11h-7v11H28Zm9-19h9c5 0 7-2 7-6s-2-6-7-6h-9v12Z" fill="#F59E0B"/>
    <path d="M64 40v-9h34v9H87v32H76V40H64Z" fill="#EDEDED"/>
  </g>
  <text x="108" y="284" fill="#EDEDED" font-family="Arial, Helvetica, sans-serif" font-size="72" font-weight="700">Rasmus Thunborg</text>
  <text x="108" y="354" fill="#A1A1A1" font-family="Arial, Helvetica, sans-serif" font-size="34">Expert Software Engineer</text>
  <text x="108" y="420" fill="#F59E0B" font-family="Arial, Helvetica, sans-serif" font-size="28">Backend • Cloud Architecture • Technical Leadership • Agentic AI</text>
  <text x="108" y="504" fill="#666666" font-family="Consolas, Monaco, monospace" font-size="24">thunborg.se</text>
</svg>
